<svg width="20" height="20" viewBox="0 0 20 20" fill="none" xmlns="http://www.w3.org/2000/svg">
<path d="M16.668 3.33301H3.33397C2.41797 3.33301 1.67597 4.08301 1.67597 5.00001L1.66797 15C1.66797 15.917 2.41797 16.667 3.33397 16.667H16.668C17.584 16.667 18.334 15.917 18.334 15V5.00001C18.334 4.08301 17.584 3.33301 16.668 3.33301ZM16.334 6.87501L10.443 10.559C10.3101 10.6408 10.157 10.6842 10.001 10.6842C9.84489 10.6842 9.69187 10.6408 9.55897 10.559L3.66797 6.87501C3.58557 6.82751 3.51359 6.76391 3.45632 6.68798C3.39904 6.61206 3.35765 6.52537 3.33462 6.4331C3.31158 6.34083 3.30737 6.24486 3.32224 6.15093C3.3371 6.057 3.37074 5.96702 3.42115 5.88637C3.47155 5.80572 3.53769 5.73606 3.61561 5.68153C3.69353 5.627 3.78164 5.58874 3.87468 5.56901C3.96771 5.54928 4.06377 5.5485 4.15711 5.56671C4.25045 5.58492 4.33917 5.62176 4.41797 5.67501L10.001 9.16701L15.584 5.67501C15.6628 5.62176 15.7515 5.58492 15.8448 5.56671C15.9382 5.5485 16.0342 5.54928 16.1273 5.56901C16.2203 5.58874 16.3084 5.627 16.3863 5.68153C16.4642 5.73606 16.5304 5.80572 16.5808 5.88637C16.6312 5.96702 16.6648 6.057 16.6797 6.15093C16.6946 6.24486 16.6904 6.34083 16.6673 6.4331C16.6443 6.52537 16.6029 6.61206 16.5456 6.68798C16.4883 6.76391 16.4164 6.82751 16.334 6.87501Z" fill="url(#paint0_linear_422_1861)"/>
<defs>
<linearGradient id="paint0_linear_422_1861" x1="10.001" y1="3.33301" x2="10.001" y2="16.667" gradientUnits="userSpaceOnUse">
<stop stop-color="#FF8352"/>
<stop offset="1" stop-color="#994F31"/>
</linearGradient>
</defs>
</svg>
