<svg width="20" height="20" viewBox="0 0 20 20" fill="none" xmlns="http://www.w3.org/2000/svg">
<path d="M9.99903 1.66699C6.49903 1.66699 3.33203 4.34999 3.33203 8.49999C3.33203 11.15 5.37403 14.267 9.44903 17.858C9.60302 17.9909 9.79964 18.064 10.003 18.064C10.2064 18.064 10.403 17.9909 10.557 17.858C14.624 14.267 16.666 11.15 16.666 8.49999C16.666 4.34999 13.499 1.66699 9.99903 1.66699ZM9.99903 9.99999C9.08203 9.99999 8.33203 9.24999 8.33203 8.33299C8.33203 7.41599 9.08203 6.66599 9.99903 6.66599C10.916 6.66599 11.666 7.41599 11.666 8.33299C11.666 9.24999 10.916 9.99999 9.99903 9.99999Z" fill="url(#paint0_linear_422_1859)"/>
<defs>
<linearGradient id="paint0_linear_422_1859" x1="9.99903" y1="1.66699" x2="9.99903" y2="18.064" gradientUnits="userSpaceOnUse">
<stop stop-color="#FF8352"/>
<stop offset="1" stop-color="#994F31"/>
</linearGradient>
</defs>
</svg>
