<svg width="208" height="24" viewBox="0 0 208 24" fill="none" xmlns="http://www.w3.org/2000/svg">
<path d="M20.928 6.008V6.488C20.416 6.504 20.024 6.568 19.752 6.68C19.48 6.776 19.296 6.968 19.2 7.256C19.12 7.528 19.08 7.96 19.08 8.552V20.456C19.08 21.032 19.128 21.464 19.224 21.752C19.32 22.04 19.496 22.232 19.752 22.328C20.024 22.424 20.416 22.488 20.928 22.52V23C20.512 22.968 19.984 22.952 19.344 22.952C18.704 22.936 18.056 22.928 17.4 22.928C16.68 22.928 16 22.936 15.36 22.952C14.736 22.952 14.232 22.968 13.848 23V22.52C14.392 22.488 14.8 22.424 15.072 22.328C15.36 22.232 15.552 22.04 15.648 21.752C15.744 21.464 15.792 21.032 15.792 20.456V7.4L15.96 7.424L10.008 23.072H9.624L3.288 7.544V19.448C3.288 20.216 3.336 20.816 3.432 21.248C3.528 21.664 3.736 21.968 4.056 22.16C4.392 22.336 4.896 22.456 5.568 22.52V23C5.264 22.968 4.872 22.952 4.392 22.952C3.912 22.936 3.456 22.928 3.024 22.928C2.64 22.928 2.248 22.936 1.848 22.952C1.464 22.952 1.144 22.968 0.888 23V22.52C1.416 22.456 1.808 22.336 2.064 22.16C2.336 21.984 2.512 21.696 2.592 21.296C2.688 20.896 2.736 20.344 2.736 19.64V8.552C2.736 7.96 2.688 7.528 2.592 7.256C2.512 6.968 2.336 6.776 2.064 6.68C1.808 6.568 1.416 6.504 0.888 6.488V6.008C1.144 6.024 1.464 6.04 1.848 6.056C2.248 6.072 2.64 6.08 3.024 6.08C3.616 6.08 4.192 6.072 4.752 6.056C5.312 6.04 5.808 6.024 6.24 6.008L11.4 18.896L10.872 19.328L15.888 6.08C16.128 6.08 16.376 6.08 16.632 6.08C16.904 6.08 17.16 6.08 17.4 6.08C18.056 6.08 18.704 6.072 19.344 6.056C19.984 6.04 20.512 6.024 20.928 6.008ZM29.6683 6.008V6.488C29.1563 6.504 28.7643 6.568 28.4923 6.68C28.2363 6.776 28.0603 6.968 27.9643 7.256C27.8683 7.528 27.8203 7.96 27.8203 8.552V20.456C27.8203 21.032 27.8683 21.464 27.9643 21.752C28.0603 22.04 28.2363 22.232 28.4923 22.328C28.7643 22.424 29.1563 22.488 29.6683 22.52V23C29.2683 22.968 28.7563 22.952 28.1323 22.952C27.5083 22.936 26.8763 22.928 26.2363 22.928C25.5163 22.928 24.8443 22.936 24.2203 22.952C23.5963 22.952 23.0843 22.968 22.6843 23V22.52C23.2123 22.488 23.6043 22.424 23.8603 22.328C24.1323 22.232 24.3083 22.04 24.3883 21.752C24.4843 21.464 24.5323 21.032 24.5323 20.456V8.552C24.5323 7.96 24.4843 7.528 24.3883 7.256C24.3083 6.968 24.1323 6.776 23.8603 6.68C23.6043 6.568 23.2123 6.504 22.6843 6.488V6.008C23.0843 6.024 23.5963 6.04 24.2203 6.056C24.8443 6.072 25.5163 6.08 26.2363 6.08C26.8763 6.08 27.5083 6.072 28.1323 6.056C28.7563 6.04 29.2683 6.024 29.6683 6.008ZM28.5163 0.655999C28.8523 0.463999 29.1883 0.408 29.5243 0.487999C29.8763 0.552 30.1323 0.736 30.2923 1.04C30.4363 1.328 30.4603 1.624 30.3643 1.928C30.2683 2.232 30.0443 2.488 29.6923 2.696C29.3403 2.904 28.9403 3.072 28.4923 3.2C28.0603 3.328 27.5483 3.48 26.9563 3.656C26.3643 3.832 25.6283 4.104 24.7483 4.472L24.5803 4.16C25.3323 3.568 25.9323 3.048 26.3803 2.6C26.8283 2.152 27.2043 1.768 27.5083 1.448C27.8283 1.112 28.1643 0.847999 28.5163 0.655999ZM39.687 5.672C40.743 5.672 41.607 5.832 42.279 6.152C42.967 6.456 43.575 6.816 44.103 7.232C44.423 7.472 44.663 7.504 44.823 7.328C44.999 7.136 45.119 6.696 45.183 6.008H45.735C45.703 6.616 45.679 7.36 45.663 8.24C45.647 9.12 45.639 10.28 45.639 11.72H45.087C44.991 11 44.887 10.4 44.775 9.92C44.663 9.424 44.503 9 44.295 8.648C44.103 8.296 43.831 7.96 43.479 7.64C43.047 7.16 42.527 6.808 41.919 6.584C41.327 6.344 40.703 6.224 40.047 6.224C39.215 6.224 38.487 6.448 37.863 6.896C37.255 7.328 36.743 7.928 36.327 8.696C35.927 9.448 35.623 10.328 35.415 11.336C35.223 12.344 35.127 13.416 35.127 14.552C35.127 15.72 35.231 16.808 35.439 17.816C35.663 18.808 35.983 19.68 36.399 20.432C36.831 21.168 37.359 21.744 37.983 22.16C38.623 22.576 39.359 22.784 40.191 22.784C40.783 22.784 41.391 22.672 42.015 22.448C42.639 22.224 43.151 21.88 43.551 21.416C44.079 20.936 44.439 20.368 44.631 19.712C44.823 19.04 44.975 18.152 45.087 17.048H45.639C45.639 18.552 45.647 19.768 45.663 20.696C45.679 21.608 45.703 22.376 45.735 23H45.183C45.119 22.312 45.007 21.88 44.847 21.704C44.703 21.528 44.455 21.552 44.103 21.776C43.511 22.192 42.879 22.56 42.207 22.88C41.551 23.184 40.703 23.336 39.663 23.336C38.031 23.336 36.599 22.992 35.367 22.304C34.135 21.616 33.175 20.624 32.487 19.328C31.815 18.032 31.479 16.472 31.479 14.648C31.479 12.856 31.831 11.288 32.535 9.944C33.239 8.6 34.207 7.552 35.439 6.8C36.671 6.048 38.087 5.672 39.687 5.672ZM60.5957 6.008C60.5317 6.664 60.4837 7.304 60.4517 7.928C60.4357 8.536 60.4277 9 60.4277 9.32C60.4277 9.624 60.4357 9.92 60.4517 10.208C60.4677 10.48 60.4837 10.712 60.4997 10.904H59.9477C59.8197 9.8 59.6117 8.936 59.3237 8.312C59.0357 7.672 58.6437 7.224 58.1477 6.968C57.6677 6.696 57.0357 6.56 56.2517 6.56H54.9317C54.4517 6.56 54.0837 6.6 53.8277 6.68C53.5717 6.76 53.3957 6.928 53.2997 7.184C53.2197 7.44 53.1797 7.832 53.1797 8.36V20.648C53.1797 21.16 53.2197 21.552 53.2997 21.824C53.3957 22.08 53.5717 22.248 53.8277 22.328C54.0837 22.408 54.4517 22.448 54.9317 22.448H56.2997C57.1157 22.448 57.7957 22.296 58.3397 21.992C58.8997 21.688 59.3477 21.192 59.6837 20.504C60.0197 19.8 60.2677 18.84 60.4277 17.624H60.9797C60.9317 18.12 60.9077 18.76 60.9077 19.544C60.9077 19.88 60.9157 20.368 60.9317 21.008C60.9637 21.648 61.0117 22.312 61.0757 23C60.2597 22.968 59.3397 22.952 58.3157 22.952C57.2917 22.936 56.3797 22.928 55.5797 22.928C55.2117 22.928 54.7237 22.928 54.1157 22.928C53.5237 22.928 52.8757 22.936 52.1717 22.952C51.4837 22.952 50.7797 22.96 50.0597 22.976C49.3557 22.976 48.6837 22.984 48.0437 23V22.52C48.5717 22.488 48.9637 22.424 49.2197 22.328C49.4917 22.232 49.6677 22.04 49.7477 21.752C49.8437 21.464 49.8917 21.032 49.8917 20.456V8.552C49.8917 7.96 49.8437 7.528 49.7477 7.256C49.6677 6.968 49.4917 6.776 49.2197 6.68C48.9637 6.568 48.5717 6.504 48.0437 6.488V6.008C48.6837 6.024 49.3557 6.04 50.0597 6.056C50.7797 6.056 51.4837 6.064 52.1717 6.08C52.8757 6.08 53.5237 6.08 54.1157 6.08C54.7237 6.08 55.2117 6.08 55.5797 6.08C56.3157 6.08 57.1477 6.08 58.0757 6.08C59.0197 6.064 59.8597 6.04 60.5957 6.008ZM56.7317 14.216C56.7317 14.216 56.7317 14.296 56.7317 14.456C56.7317 14.616 56.7317 14.696 56.7317 14.696H52.4597C52.4597 14.696 52.4597 14.616 52.4597 14.456C52.4597 14.296 52.4597 14.216 52.4597 14.216H56.7317ZM57.4277 11.048C57.3637 11.96 57.3317 12.656 57.3317 13.136C57.3477 13.616 57.3557 14.056 57.3557 14.456C57.3557 14.856 57.3637 15.296 57.3797 15.776C57.3957 16.256 57.4357 16.952 57.4997 17.864H56.9477C56.8677 17.32 56.7397 16.808 56.5637 16.328C56.4037 15.832 56.1397 15.44 55.7717 15.152C55.4197 14.848 54.9077 14.696 54.2357 14.696V14.216C54.7317 14.216 55.1317 14.112 55.4357 13.904C55.7557 13.696 56.0117 13.432 56.2037 13.112C56.3957 12.776 56.5397 12.432 56.6357 12.08C56.7477 11.712 56.8277 11.368 56.8757 11.048H57.4277ZM70.1237 6.008V6.488C69.5797 6.504 69.1637 6.568 68.8757 6.68C68.6037 6.776 68.4197 6.968 68.3237 7.256C68.2277 7.528 68.1797 7.96 68.1797 8.552V20.648C68.1797 21.16 68.2197 21.552 68.2997 21.824C68.3957 22.08 68.5637 22.248 68.8037 22.328C69.0437 22.408 69.3877 22.448 69.8357 22.448H71.2037C71.8277 22.448 72.3717 22.336 72.8357 22.112C73.3157 21.888 73.7317 21.56 74.0837 21.128C74.4357 20.696 74.7237 20.168 74.9477 19.544C75.1717 18.904 75.3317 18.184 75.4277 17.384H75.9797C75.9317 17.912 75.9077 18.6 75.9077 19.448C75.9077 19.8 75.9157 20.304 75.9317 20.96C75.9637 21.616 76.0117 22.296 76.0757 23C75.2597 22.968 74.3397 22.952 73.3157 22.952C72.2917 22.936 71.3797 22.928 70.5797 22.928C70.1957 22.928 69.7077 22.928 69.1157 22.928C68.5237 22.928 67.8757 22.936 67.1717 22.952C66.4837 22.952 65.7797 22.96 65.0597 22.976C64.3557 22.976 63.6837 22.984 63.0437 23V22.52C63.5717 22.488 63.9637 22.424 64.2197 22.328C64.4917 22.232 64.6677 22.04 64.7477 21.752C64.8437 21.464 64.8917 21.032 64.8917 20.456V8.552C64.8917 7.96 64.8437 7.528 64.7477 7.256C64.6677 6.968 64.4917 6.776 64.2197 6.68C63.9637 6.568 63.5717 6.504 63.0437 6.488V6.008C63.4437 6.024 63.9557 6.04 64.5797 6.056C65.2037 6.072 65.8757 6.08 66.5957 6.08C67.2517 6.08 67.8997 6.072 68.5397 6.056C69.1797 6.04 69.7077 6.024 70.1237 6.008ZM84.4886 6.008V6.488C83.9766 6.504 83.5846 6.568 83.3126 6.68C83.0566 6.776 82.8806 6.968 82.7846 7.256C82.6886 7.528 82.6406 7.96 82.6406 8.552V20.456C82.6406 21.032 82.6886 21.464 82.7846 21.752C82.8806 22.04 83.0566 22.232 83.3126 22.328C83.5846 22.424 83.9766 22.488 84.4886 22.52V23C84.0886 22.968 83.5766 22.952 82.9526 22.952C82.3286 22.936 81.6966 22.928 81.0566 22.928C80.3366 22.928 79.6646 22.936 79.0406 22.952C78.4166 22.952 77.9046 22.968 77.5046 23V22.52C78.0326 22.488 78.4246 22.424 78.6806 22.328C78.9526 22.232 79.1286 22.04 79.2086 21.752C79.3046 21.464 79.3526 21.032 79.3526 20.456V8.552C79.3526 7.96 79.3046 7.528 79.2086 7.256C79.1286 6.968 78.9526 6.776 78.6806 6.68C78.4246 6.568 78.0326 6.504 77.5046 6.488V6.008C77.9046 6.024 78.4166 6.04 79.0406 6.056C79.6646 6.072 80.3366 6.08 81.0566 6.08C81.6966 6.08 82.3286 6.072 82.9526 6.056C83.5766 6.04 84.0886 6.024 84.4886 6.008ZM94.5073 5.672C96.1393 5.672 97.5713 6.016 98.8033 6.704C100.035 7.392 100.987 8.384 101.659 9.68C102.347 10.96 102.691 12.52 102.691 14.36C102.691 16.152 102.339 17.72 101.635 19.064C100.947 20.408 99.9793 21.456 98.7313 22.208C97.4993 22.96 96.0833 23.336 94.4833 23.336C92.8513 23.336 91.4193 22.992 90.1873 22.304C88.9553 21.616 87.9953 20.624 87.3073 19.328C86.6353 18.032 86.2993 16.472 86.2993 14.648C86.2993 12.856 86.6513 11.288 87.3553 9.944C88.0593 8.6 89.0273 7.552 90.2593 6.8C91.4913 6.048 92.9073 5.672 94.5073 5.672ZM94.4113 6.104C93.4673 6.104 92.6433 6.464 91.9393 7.184C91.2513 7.904 90.7153 8.896 90.3313 10.16C89.9473 11.424 89.7553 12.888 89.7553 14.552C89.7553 16.248 89.9713 17.728 90.4033 18.992C90.8353 20.24 91.4193 21.208 92.1553 21.896C92.8913 22.568 93.6993 22.904 94.5793 22.904C95.5233 22.904 96.3393 22.544 97.0273 21.824C97.7313 21.104 98.2753 20.112 98.6593 18.848C99.0433 17.568 99.2353 16.104 99.2353 14.456C99.2353 12.744 99.0193 11.264 98.5873 10.016C98.1553 8.768 97.5713 7.808 96.8353 7.136C96.1153 6.448 95.3073 6.104 94.4113 6.104ZM124.592 6.008V6.488C124.272 6.6 123.92 6.856 123.536 7.256C123.152 7.64 122.808 8.248 122.504 9.08L117.248 23.072C117.152 23.072 117.048 23.064 116.936 23.048C116.84 23.048 116.736 23.048 116.624 23.048C116.512 23.048 116.4 23.048 116.288 23.048C116.192 23.064 116.096 23.072 116 23.072L109.976 8.024C109.736 7.432 109.472 7.032 109.184 6.824C108.912 6.616 108.656 6.504 108.416 6.488V6.008C108.832 6.024 109.336 6.04 109.928 6.056C110.536 6.072 111.128 6.08 111.704 6.08C112.408 6.08 113.064 6.072 113.672 6.056C114.296 6.04 114.792 6.024 115.16 6.008V6.488C114.632 6.504 114.224 6.568 113.936 6.68C113.664 6.776 113.512 6.968 113.48 7.256C113.448 7.528 113.536 7.944 113.744 8.504L118.16 19.856L117.704 20.408L121.304 10.808C121.704 9.736 121.904 8.888 121.904 8.264C121.904 7.64 121.728 7.192 121.376 6.92C121.024 6.648 120.52 6.504 119.864 6.488V6.008C120.392 6.024 120.888 6.04 121.352 6.056C121.832 6.072 122.304 6.08 122.768 6.08C123.152 6.08 123.488 6.072 123.776 6.056C124.08 6.04 124.352 6.024 124.592 6.008ZM137.799 6.008C137.735 6.664 137.687 7.304 137.655 7.928C137.639 8.536 137.631 9 137.631 9.32C137.631 9.624 137.639 9.92 137.655 10.208C137.671 10.48 137.687 10.712 137.703 10.904H137.151C137.023 9.8 136.815 8.936 136.527 8.312C136.239 7.672 135.847 7.224 135.351 6.968C134.871 6.696 134.239 6.56 133.455 6.56H132.135C131.655 6.56 131.287 6.6 131.031 6.68C130.775 6.76 130.599 6.928 130.503 7.184C130.423 7.44 130.383 7.832 130.383 8.36V20.648C130.383 21.16 130.423 21.552 130.503 21.824C130.599 22.08 130.775 22.248 131.031 22.328C131.287 22.408 131.655 22.448 132.135 22.448H133.503C134.319 22.448 134.999 22.296 135.543 21.992C136.103 21.688 136.551 21.192 136.887 20.504C137.223 19.8 137.471 18.84 137.631 17.624H138.183C138.135 18.12 138.111 18.76 138.111 19.544C138.111 19.88 138.119 20.368 138.135 21.008C138.167 21.648 138.215 22.312 138.279 23C137.463 22.968 136.543 22.952 135.519 22.952C134.495 22.936 133.583 22.928 132.783 22.928C132.415 22.928 131.927 22.928 131.319 22.928C130.727 22.928 130.079 22.936 129.375 22.952C128.687 22.952 127.983 22.96 127.263 22.976C126.559 22.976 125.887 22.984 125.247 23V22.52C125.775 22.488 126.167 22.424 126.423 22.328C126.695 22.232 126.871 22.04 126.951 21.752C127.047 21.464 127.095 21.032 127.095 20.456V8.552C127.095 7.96 127.047 7.528 126.951 7.256C126.871 6.968 126.695 6.776 126.423 6.68C126.167 6.568 125.775 6.504 125.247 6.488V6.008C125.887 6.024 126.559 6.04 127.263 6.056C127.983 6.056 128.687 6.064 129.375 6.08C130.079 6.08 130.727 6.08 131.319 6.08C131.927 6.08 132.415 6.08 132.783 6.08C133.519 6.08 134.351 6.08 135.279 6.08C136.223 6.064 137.063 6.04 137.799 6.008ZM133.935 14.216C133.935 14.216 133.935 14.296 133.935 14.456C133.935 14.616 133.935 14.696 133.935 14.696H129.663C129.663 14.696 129.663 14.616 129.663 14.456C129.663 14.296 129.663 14.216 129.663 14.216H133.935ZM134.631 11.048C134.567 11.96 134.535 12.656 134.535 13.136C134.551 13.616 134.559 14.056 134.559 14.456C134.559 14.856 134.567 15.296 134.583 15.776C134.599 16.256 134.639 16.952 134.703 17.864H134.151C134.071 17.32 133.943 16.808 133.767 16.328C133.607 15.832 133.343 15.44 132.975 15.152C132.623 14.848 132.111 14.696 131.439 14.696V14.216C131.935 14.216 132.335 14.112 132.639 13.904C132.959 13.696 133.215 13.432 133.407 13.112C133.599 12.776 133.743 12.432 133.839 12.08C133.951 11.712 134.031 11.368 134.079 11.048H134.631ZM140.247 6.008C140.647 6.024 141.159 6.04 141.783 6.056C142.407 6.072 143.031 6.08 143.655 6.08C144.439 6.08 145.183 6.072 145.887 6.056C146.591 6.04 147.087 6.032 147.375 6.032C148.815 6.032 149.999 6.208 150.927 6.56C151.871 6.896 152.575 7.376 153.039 8C153.503 8.624 153.735 9.36 153.735 10.208C153.735 10.736 153.631 11.28 153.423 11.84C153.215 12.384 152.855 12.888 152.343 13.352C151.831 13.816 151.127 14.2 150.231 14.504C149.351 14.792 148.223 14.936 146.847 14.936H144.543V14.456H146.607C147.615 14.456 148.383 14.28 148.911 13.928C149.455 13.56 149.815 13.08 149.991 12.488C150.183 11.88 150.279 11.208 150.279 10.472C150.279 9.208 150.031 8.232 149.535 7.544C149.039 6.84 148.183 6.488 146.967 6.488C146.311 6.488 145.879 6.624 145.671 6.896C145.479 7.168 145.383 7.72 145.383 8.552V20.456C145.383 21.032 145.431 21.464 145.527 21.752C145.623 22.04 145.799 22.232 146.055 22.328C146.327 22.424 146.719 22.488 147.231 22.52V23C146.831 22.968 146.319 22.952 145.695 22.952C145.071 22.936 144.439 22.928 143.799 22.928C143.079 22.928 142.407 22.936 141.783 22.952C141.159 22.952 140.647 22.968 140.247 23V22.52C140.775 22.488 141.167 22.424 141.423 22.328C141.695 22.232 141.871 22.04 141.951 21.752C142.047 21.464 142.095 21.032 142.095 20.456V8.552C142.095 7.96 142.047 7.528 141.951 7.256C141.871 6.968 141.695 6.776 141.423 6.68C141.167 6.568 140.775 6.504 140.247 6.488V6.008ZM144.543 14.528C145.295 14.56 145.919 14.6 146.415 14.648C146.927 14.68 147.359 14.712 147.711 14.744C148.079 14.776 148.407 14.816 148.695 14.864C150.023 14.992 150.999 15.304 151.623 15.8C152.263 16.28 152.687 17.016 152.895 18.008L153.447 20.48C153.591 21.136 153.743 21.608 153.903 21.896C154.079 22.168 154.327 22.296 154.647 22.28C154.871 22.28 155.063 22.224 155.223 22.112C155.383 21.984 155.543 21.816 155.703 21.608L156.039 21.896C155.639 22.392 155.215 22.76 154.767 23C154.319 23.224 153.751 23.336 153.063 23.336C152.295 23.336 151.647 23.16 151.119 22.808C150.591 22.44 150.231 21.752 150.039 20.744L149.583 18.344C149.455 17.672 149.303 17.08 149.127 16.568C148.967 16.056 148.743 15.656 148.455 15.368C148.167 15.08 147.743 14.936 147.183 14.936H144.591L144.543 14.528ZM163.473 6.008V6.488C162.961 6.504 162.569 6.568 162.297 6.68C162.041 6.776 161.865 6.968 161.769 7.256C161.673 7.528 161.625 7.96 161.625 8.552V20.456C161.625 21.032 161.673 21.464 161.769 21.752C161.865 22.04 162.041 22.232 162.297 22.328C162.569 22.424 162.961 22.488 163.473 22.52V23C163.073 22.968 162.561 22.952 161.937 22.952C161.313 22.936 160.681 22.928 160.041 22.928C159.321 22.928 158.649 22.936 158.025 22.952C157.401 22.952 156.889 22.968 156.489 23V22.52C157.017 22.488 157.409 22.424 157.665 22.328C157.937 22.232 158.113 22.04 158.193 21.752C158.289 21.464 158.337 21.032 158.337 20.456V8.552C158.337 7.96 158.289 7.528 158.193 7.256C158.113 6.968 157.937 6.776 157.665 6.68C157.409 6.568 157.017 6.504 156.489 6.488V6.008C156.889 6.024 157.401 6.04 158.025 6.056C158.649 6.072 159.321 6.08 160.041 6.08C160.681 6.08 161.313 6.072 161.937 6.056C162.561 6.04 163.073 6.024 163.473 6.008ZM179.391 6.008C179.327 6.744 179.279 7.464 179.247 8.168C179.231 8.856 179.223 9.384 179.223 9.752C179.223 10.12 179.231 10.464 179.247 10.784C179.263 11.104 179.279 11.384 179.295 11.624H178.743C178.519 10.344 178.247 9.344 177.927 8.624C177.607 7.888 177.183 7.36 176.655 7.04C176.143 6.72 175.463 6.56 174.615 6.56H173.847V20.24C173.847 20.896 173.903 21.384 174.015 21.704C174.143 22.024 174.391 22.24 174.759 22.352C175.127 22.448 175.663 22.504 176.367 22.52V23C175.887 22.968 175.263 22.952 174.495 22.952C173.727 22.936 172.943 22.928 172.143 22.928C171.311 22.928 170.527 22.936 169.791 22.952C169.071 22.952 168.487 22.968 168.039 23V22.52C168.727 22.504 169.255 22.448 169.623 22.352C169.991 22.24 170.239 22.024 170.367 21.704C170.495 21.384 170.559 20.896 170.559 20.24V6.56H169.767C168.935 6.56 168.255 6.72 167.727 7.04C167.199 7.36 166.775 7.888 166.455 8.624C166.135 9.344 165.871 10.344 165.663 11.624H165.111C165.143 11.384 165.159 11.104 165.159 10.784C165.175 10.464 165.183 10.12 165.183 9.752C165.183 9.384 165.167 8.856 165.135 8.168C165.119 7.464 165.079 6.744 165.015 6.008C165.719 6.024 166.495 6.04 167.343 6.056C168.191 6.072 169.039 6.08 169.887 6.08C170.735 6.08 171.511 6.08 172.215 6.08C172.903 6.08 173.671 6.08 174.519 6.08C175.367 6.08 176.215 6.072 177.063 6.056C177.911 6.04 178.687 6.024 179.391 6.008ZM187.206 5.936L193.038 20.984C193.278 21.56 193.534 21.96 193.806 22.184C194.094 22.392 194.358 22.504 194.598 22.52V23C194.182 22.968 193.678 22.952 193.086 22.952C192.51 22.936 191.918 22.928 191.31 22.928C190.606 22.928 189.95 22.936 189.342 22.952C188.734 22.952 188.238 22.968 187.854 23V22.52C188.67 22.488 189.19 22.352 189.414 22.112C189.638 21.856 189.59 21.32 189.27 20.504L185.046 9.104L185.478 8.576L181.638 18.536C181.334 19.336 181.15 19.992 181.086 20.504C181.022 21.016 181.062 21.416 181.206 21.704C181.35 21.992 181.59 22.2 181.926 22.328C182.262 22.44 182.678 22.504 183.174 22.52V23C182.662 22.968 182.166 22.952 181.686 22.952C181.206 22.936 180.726 22.928 180.246 22.928C179.894 22.928 179.558 22.936 179.238 22.952C178.934 22.952 178.662 22.968 178.422 23V22.52C178.774 22.44 179.118 22.232 179.454 21.896C179.806 21.56 180.142 20.976 180.462 20.144L185.958 5.936C186.15 5.952 186.358 5.96 186.582 5.96C186.806 5.96 187.014 5.952 187.206 5.936ZM189.294 16.088V16.568H182.142L182.382 16.088H189.294ZM201.037 5.72C201.933 5.72 202.621 5.816 203.101 6.008C203.581 6.2 203.997 6.408 204.349 6.632C204.541 6.744 204.693 6.832 204.805 6.896C204.933 6.944 205.053 6.968 205.165 6.968C205.325 6.968 205.437 6.88 205.501 6.704C205.581 6.528 205.645 6.264 205.693 5.912H206.245C206.229 6.216 206.205 6.568 206.173 6.968C206.157 7.368 206.141 7.904 206.125 8.576C206.125 9.232 206.125 10.104 206.125 11.192H205.573C205.525 10.376 205.341 9.592 205.021 8.84C204.717 8.088 204.277 7.472 203.701 6.992C203.141 6.496 202.421 6.248 201.541 6.248C200.757 6.248 200.101 6.48 199.573 6.944C199.061 7.408 198.805 8.032 198.805 8.816C198.805 9.488 198.973 10.056 199.309 10.52C199.645 10.968 200.117 11.408 200.725 11.84C201.349 12.256 202.085 12.736 202.933 13.28C203.717 13.792 204.421 14.304 205.045 14.816C205.669 15.312 206.157 15.864 206.509 16.472C206.877 17.08 207.061 17.824 207.061 18.704C207.061 19.744 206.805 20.608 206.293 21.296C205.781 21.984 205.093 22.496 204.229 22.832C203.365 23.168 202.421 23.336 201.397 23.336C200.453 23.336 199.701 23.24 199.141 23.048C198.597 22.856 198.125 22.656 197.725 22.448C197.373 22.224 197.101 22.112 196.909 22.112C196.749 22.112 196.629 22.2 196.549 22.376C196.485 22.552 196.429 22.816 196.381 23.168H195.829C195.861 22.8 195.877 22.368 195.877 21.872C195.893 21.376 195.901 20.736 195.901 19.952C195.917 19.152 195.925 18.144 195.925 16.928H196.477C196.541 17.952 196.717 18.912 197.005 19.808C197.309 20.688 197.765 21.4 198.373 21.944C198.997 22.488 199.821 22.76 200.845 22.76C201.405 22.76 201.909 22.664 202.357 22.472C202.821 22.264 203.189 21.952 203.461 21.536C203.733 21.104 203.869 20.56 203.869 19.904C203.869 19.248 203.717 18.672 203.413 18.176C203.109 17.68 202.685 17.216 202.141 16.784C201.597 16.352 200.957 15.912 200.221 15.464C199.469 14.984 198.765 14.496 198.109 14C197.453 13.504 196.925 12.944 196.525 12.32C196.141 11.68 195.949 10.912 195.949 10.016C195.949 9.024 196.189 8.216 196.669 7.592C197.149 6.952 197.773 6.48 198.541 6.176C199.325 5.872 200.157 5.72 201.037 5.72Z" fill="white"/>
</svg>
