<svg width="209" height="28" viewBox="0 0 209 28" fill="none" xmlns="http://www.w3.org/2000/svg">
<path d="M30.2151 4.2909C30.3577 4.57464 30.3755 4.8675 30.2684 5.16946C30.1613 5.47143 29.9254 5.72899 29.5607 5.94213C29.223 6.13179 28.8292 6.28966 28.3792 6.41576C27.9501 6.53316 27.4332 6.67492 26.8283 6.84102C26.2234 7.00712 25.4779 7.26239 24.5919 7.60685L24.4301 7.30657C25.1909 6.72015 25.7919 6.20637 26.2332 5.76522C26.6893 5.33017 27.078 4.95385 27.3992 4.63627C27.7204 4.31868 28.0603 4.06071 28.4189 3.86235C28.7714 3.6788 29.1121 3.62882 29.4411 3.71244C29.7848 3.80215 30.0428 3.99497 30.2151 4.2909Z" fill="#FF8352"/>
<path d="M20.928 9.008V9.488C20.416 9.504 20.024 9.568 19.752 9.68C19.48 9.776 19.296 9.968 19.2 10.256C19.12 10.528 19.08 10.96 19.08 11.552V23.456C19.08 24.032 19.128 24.464 19.224 24.752C19.32 25.04 19.496 25.232 19.752 25.328C20.024 25.424 20.416 25.488 20.928 25.52V26C20.512 25.968 19.984 25.952 19.344 25.952C18.704 25.936 18.056 25.928 17.4 25.928C16.68 25.928 16 25.936 15.36 25.952C14.736 25.952 14.232 25.968 13.848 26V25.52C14.392 25.488 14.8 25.424 15.072 25.328C15.36 25.232 15.552 25.04 15.648 24.752C15.744 24.464 15.792 24.032 15.792 23.456V10.4L15.96 10.424L10.008 26.072H9.624L3.288 10.544V22.448C3.288 23.216 3.336 23.816 3.432 24.248C3.528 24.664 3.736 24.968 4.056 25.16C4.392 25.336 4.896 25.456 5.568 25.52V26C5.264 25.968 4.872 25.952 4.392 25.952C3.912 25.936 3.456 25.928 3.024 25.928C2.64 25.928 2.248 25.936 1.848 25.952C1.464 25.952 1.144 25.968 0.888 26V25.52C1.416 25.456 1.808 25.336 2.064 25.16C2.336 24.984 2.512 24.696 2.592 24.296C2.688 23.896 2.736 23.344 2.736 22.64V11.552C2.736 10.96 2.688 10.528 2.592 10.256C2.512 9.968 2.336 9.776 2.064 9.68C1.808 9.568 1.416 9.504 0.888 9.488V9.008C1.144 9.024 1.464 9.04 1.848 9.056C2.248 9.072 2.64 9.08 3.024 9.08C3.616 9.08 4.192 9.072 4.752 9.056C5.312 9.04 5.808 9.024 6.24 9.008L11.4 21.896L10.872 22.328L15.888 9.08C16.128 9.08 16.376 9.08 16.632 9.08C16.904 9.08 17.16 9.08 17.4 9.08C18.056 9.08 18.704 9.072 19.344 9.056C19.984 9.04 20.512 9.024 20.928 9.008ZM29.6683 9.008V9.488C29.1563 9.504 28.7643 9.568 28.4923 9.68C28.2363 9.776 28.0603 9.968 27.9643 10.256C27.8683 10.528 27.8203 10.96 27.8203 11.552V23.456C27.8203 24.032 27.8683 24.464 27.9643 24.752C28.0603 25.04 28.2363 25.232 28.4923 25.328C28.7643 25.424 29.1563 25.488 29.6683 25.52V26C29.2683 25.968 28.7563 25.952 28.1323 25.952C27.5083 25.936 26.8763 25.928 26.2363 25.928C25.5163 25.928 24.8443 25.936 24.2203 25.952C23.5963 25.952 23.0843 25.968 22.6843 26V25.52C23.2123 25.488 23.6043 25.424 23.8603 25.328C24.1323 25.232 24.3083 25.04 24.3883 24.752C24.4843 24.464 24.5323 24.032 24.5323 23.456V11.552C24.5323 10.96 24.4843 10.528 24.3883 10.256C24.3083 9.968 24.1323 9.776 23.8603 9.68C23.6043 9.568 23.2123 9.504 22.6843 9.488V9.008C23.0843 9.024 23.5963 9.04 24.2203 9.056C24.8443 9.072 25.5163 9.08 26.2363 9.08C26.8763 9.08 27.5083 9.072 28.1323 9.056C28.7563 9.04 29.2683 9.024 29.6683 9.008ZM39.687 8.672C40.743 8.672 41.607 8.832 42.279 9.152C42.967 9.456 43.575 9.816 44.103 10.232C44.423 10.472 44.663 10.504 44.823 10.328C44.999 10.136 45.119 9.696 45.183 9.008H45.735C45.703 9.616 45.679 10.36 45.663 11.24C45.647 12.12 45.639 13.28 45.639 14.72H45.087C44.991 14 44.887 13.4 44.775 12.92C44.663 12.424 44.503 12 44.295 11.648C44.103 11.296 43.831 10.96 43.479 10.64C43.047 10.16 42.527 9.808 41.919 9.584C41.327 9.344 40.703 9.224 40.047 9.224C39.215 9.224 38.487 9.448 37.863 9.896C37.255 10.328 36.743 10.928 36.327 11.696C35.927 12.448 35.623 13.328 35.415 14.336C35.223 15.344 35.127 16.416 35.127 17.552C35.127 18.72 35.231 19.808 35.439 20.816C35.663 21.808 35.983 22.68 36.399 23.432C36.831 24.168 37.359 24.744 37.983 25.16C38.623 25.576 39.359 25.784 40.191 25.784C40.783 25.784 41.391 25.672 42.015 25.448C42.639 25.224 43.151 24.88 43.551 24.416C44.079 23.936 44.439 23.368 44.631 22.712C44.823 22.04 44.975 21.152 45.087 20.048H45.639C45.639 21.552 45.647 22.768 45.663 23.696C45.679 24.608 45.703 25.376 45.735 26H45.183C45.119 25.312 45.007 24.88 44.847 24.704C44.703 24.528 44.455 24.552 44.103 24.776C43.511 25.192 42.879 25.56 42.207 25.88C41.551 26.184 40.703 26.336 39.663 26.336C38.031 26.336 36.599 25.992 35.367 25.304C34.135 24.616 33.175 23.624 32.487 22.328C31.815 21.032 31.479 19.472 31.479 17.648C31.479 15.856 31.831 14.288 32.535 12.944C33.239 11.6 34.207 10.552 35.439 9.8C36.671 9.048 38.087 8.672 39.687 8.672ZM60.5957 9.008C60.5317 9.664 60.4837 10.304 60.4517 10.928C60.4357 11.536 60.4277 12 60.4277 12.32C60.4277 12.624 60.4357 12.92 60.4517 13.208C60.4677 13.48 60.4837 13.712 60.4997 13.904H59.9477C59.8197 12.8 59.6117 11.936 59.3237 11.312C59.0357 10.672 58.6437 10.224 58.1477 9.968C57.6677 9.696 57.0357 9.56 56.2517 9.56H54.9317C54.4517 9.56 54.0837 9.6 53.8277 9.68C53.5717 9.76 53.3957 9.928 53.2997 10.184C53.2197 10.44 53.1797 10.832 53.1797 11.36V23.648C53.1797 24.16 53.2197 24.552 53.2997 24.824C53.3957 25.08 53.5717 25.248 53.8277 25.328C54.0837 25.408 54.4517 25.448 54.9317 25.448H56.2997C57.1157 25.448 57.7957 25.296 58.3397 24.992C58.8997 24.688 59.3477 24.192 59.6837 23.504C60.0197 22.8 60.2677 21.84 60.4277 20.624H60.9797C60.9317 21.12 60.9077 21.76 60.9077 22.544C60.9077 22.88 60.9157 23.368 60.9317 24.008C60.9637 24.648 61.0117 25.312 61.0757 26C60.2597 25.968 59.3397 25.952 58.3157 25.952C57.2917 25.936 56.3797 25.928 55.5797 25.928C55.2117 25.928 54.7237 25.928 54.1157 25.928C53.5237 25.928 52.8757 25.936 52.1717 25.952C51.4837 25.952 50.7797 25.96 50.0597 25.976C49.3557 25.976 48.6837 25.984 48.0437 26V25.52C48.5717 25.488 48.9637 25.424 49.2197 25.328C49.4917 25.232 49.6677 25.04 49.7477 24.752C49.8437 24.464 49.8917 24.032 49.8917 23.456V11.552C49.8917 10.96 49.8437 10.528 49.7477 10.256C49.6677 9.968 49.4917 9.776 49.2197 9.68C48.9637 9.568 48.5717 9.504 48.0437 9.488V9.008C48.6837 9.024 49.3557 9.04 50.0597 9.056C50.7797 9.056 51.4837 9.064 52.1717 9.08C52.8757 9.08 53.5237 9.08 54.1157 9.08C54.7237 9.08 55.2117 9.08 55.5797 9.08C56.3157 9.08 57.1477 9.08 58.0757 9.08C59.0197 9.064 59.8597 9.04 60.5957 9.008ZM56.7317 17.216C56.7317 17.216 56.7317 17.296 56.7317 17.456C56.7317 17.616 56.7317 17.696 56.7317 17.696H52.4597C52.4597 17.696 52.4597 17.616 52.4597 17.456C52.4597 17.296 52.4597 17.216 52.4597 17.216H56.7317ZM57.4277 14.048C57.3637 14.96 57.3317 15.656 57.3317 16.136C57.3477 16.616 57.3557 17.056 57.3557 17.456C57.3557 17.856 57.3637 18.296 57.3797 18.776C57.3957 19.256 57.4357 19.952 57.4997 20.864H56.9477C56.8677 20.32 56.7397 19.808 56.5637 19.328C56.4037 18.832 56.1397 18.44 55.7717 18.152C55.4197 17.848 54.9077 17.696 54.2357 17.696V17.216C54.7317 17.216 55.1317 17.112 55.4357 16.904C55.7557 16.696 56.0117 16.432 56.2037 16.112C56.3957 15.776 56.5397 15.432 56.6357 15.08C56.7477 14.712 56.8277 14.368 56.8757 14.048H57.4277ZM70.1237 9.008V9.488C69.5797 9.504 69.1637 9.568 68.8757 9.68C68.6037 9.776 68.4197 9.968 68.3237 10.256C68.2277 10.528 68.1797 10.96 68.1797 11.552V23.648C68.1797 24.16 68.2197 24.552 68.2997 24.824C68.3957 25.08 68.5637 25.248 68.8037 25.328C69.0437 25.408 69.3877 25.448 69.8357 25.448H71.2037C71.8277 25.448 72.3717 25.336 72.8357 25.112C73.3157 24.888 73.7317 24.56 74.0837 24.128C74.4357 23.696 74.7237 23.168 74.9477 22.544C75.1717 21.904 75.3317 21.184 75.4277 20.384H75.9797C75.9317 20.912 75.9077 21.6 75.9077 22.448C75.9077 22.8 75.9157 23.304 75.9317 23.96C75.9637 24.616 76.0117 25.296 76.0757 26C75.2597 25.968 74.3397 25.952 73.3157 25.952C72.2917 25.936 71.3797 25.928 70.5797 25.928C70.1957 25.928 69.7077 25.928 69.1157 25.928C68.5237 25.928 67.8757 25.936 67.1717 25.952C66.4837 25.952 65.7797 25.96 65.0597 25.976C64.3557 25.976 63.6837 25.984 63.0437 26V25.52C63.5717 25.488 63.9637 25.424 64.2197 25.328C64.4917 25.232 64.6677 25.04 64.7477 24.752C64.8437 24.464 64.8917 24.032 64.8917 23.456V11.552C64.8917 10.96 64.8437 10.528 64.7477 10.256C64.6677 9.968 64.4917 9.776 64.2197 9.68C63.9637 9.568 63.5717 9.504 63.0437 9.488V9.008C63.4437 9.024 63.9557 9.04 64.5797 9.056C65.2037 9.072 65.8757 9.08 66.5957 9.08C67.2517 9.08 67.8997 9.072 68.5397 9.056C69.1797 9.04 69.7077 9.024 70.1237 9.008ZM84.4886 9.008V9.488C83.9766 9.504 83.5846 9.568 83.3126 9.68C83.0566 9.776 82.8806 9.968 82.7846 10.256C82.6886 10.528 82.6406 10.96 82.6406 11.552V23.456C82.6406 24.032 82.6886 24.464 82.7846 24.752C82.8806 25.04 83.0566 25.232 83.3126 25.328C83.5846 25.424 83.9766 25.488 84.4886 25.52V26C84.0886 25.968 83.5766 25.952 82.9526 25.952C82.3286 25.936 81.6966 25.928 81.0566 25.928C80.3366 25.928 79.6646 25.936 79.0406 25.952C78.4166 25.952 77.9046 25.968 77.5046 26V25.52C78.0326 25.488 78.4246 25.424 78.6806 25.328C78.9526 25.232 79.1286 25.04 79.2086 24.752C79.3046 24.464 79.3526 24.032 79.3526 23.456V11.552C79.3526 10.96 79.3046 10.528 79.2086 10.256C79.1286 9.968 78.9526 9.776 78.6806 9.68C78.4246 9.568 78.0326 9.504 77.5046 9.488V9.008C77.9046 9.024 78.4166 9.04 79.0406 9.056C79.6646 9.072 80.3366 9.08 81.0566 9.08C81.6966 9.08 82.3286 9.072 82.9526 9.056C83.5766 9.04 84.0886 9.024 84.4886 9.008ZM94.5073 8.672C96.1393 8.672 97.5713 9.016 98.8033 9.704C100.035 10.392 100.987 11.384 101.659 12.68C102.347 13.96 102.691 15.52 102.691 17.36C102.691 19.152 102.339 20.72 101.635 22.064C100.947 23.408 99.9793 24.456 98.7313 25.208C97.4993 25.96 96.0833 26.336 94.4833 26.336C92.8513 26.336 91.4193 25.992 90.1873 25.304C88.9553 24.616 87.9953 23.624 87.3073 22.328C86.6353 21.032 86.2993 19.472 86.2993 17.648C86.2993 15.856 86.6513 14.288 87.3553 12.944C88.0593 11.6 89.0273 10.552 90.2593 9.8C91.4913 9.048 92.9073 8.672 94.5073 8.672ZM94.4113 9.104C93.4673 9.104 92.6433 9.464 91.9393 10.184C91.2513 10.904 90.7153 11.896 90.3313 13.16C89.9473 14.424 89.7553 15.888 89.7553 17.552C89.7553 19.248 89.9713 20.728 90.4033 21.992C90.8353 23.24 91.4193 24.208 92.1553 24.896C92.8913 25.568 93.6993 25.904 94.5793 25.904C95.5233 25.904 96.3393 25.544 97.0273 24.824C97.7313 24.104 98.2753 23.112 98.6593 21.848C99.0433 20.568 99.2353 19.104 99.2353 17.456C99.2353 15.744 99.0193 14.264 98.5873 13.016C98.1553 11.768 97.5713 10.808 96.8353 10.136C96.1153 9.448 95.3073 9.104 94.4113 9.104ZM124.592 9.008V9.488C124.272 9.6 123.92 9.856 123.536 10.256C123.152 10.64 122.808 11.248 122.504 12.08L117.248 26.072C117.152 26.072 117.048 26.064 116.936 26.048C116.84 26.048 116.736 26.048 116.624 26.048C116.512 26.048 116.4 26.048 116.288 26.048C116.192 26.064 116.096 26.072 116 26.072L109.976 11.024C109.736 10.432 109.472 10.032 109.184 9.824C108.912 9.616 108.656 9.504 108.416 9.488V9.008C108.832 9.024 109.336 9.04 109.928 9.056C110.536 9.072 111.128 9.08 111.704 9.08C112.408 9.08 113.064 9.072 113.672 9.056C114.296 9.04 114.792 9.024 115.16 9.008V9.488C114.632 9.504 114.224 9.568 113.936 9.68C113.664 9.776 113.512 9.968 113.48 10.256C113.448 10.528 113.536 10.944 113.744 11.504L118.16 22.856L117.704 23.408L121.304 13.808C121.704 12.736 121.904 11.888 121.904 11.264C121.904 10.64 121.728 10.192 121.376 9.92C121.024 9.648 120.52 9.504 119.864 9.488V9.008C120.392 9.024 120.888 9.04 121.352 9.056C121.832 9.072 122.304 9.08 122.768 9.08C123.152 9.08 123.488 9.072 123.776 9.056C124.08 9.04 124.352 9.024 124.592 9.008ZM137.799 9.008C137.735 9.664 137.687 10.304 137.655 10.928C137.639 11.536 137.631 12 137.631 12.32C137.631 12.624 137.639 12.92 137.655 13.208C137.671 13.48 137.687 13.712 137.703 13.904H137.151C137.023 12.8 136.815 11.936 136.527 11.312C136.239 10.672 135.847 10.224 135.351 9.968C134.871 9.696 134.239 9.56 133.455 9.56H132.135C131.655 9.56 131.287 9.6 131.031 9.68C130.775 9.76 130.599 9.928 130.503 10.184C130.423 10.44 130.383 10.832 130.383 11.36V23.648C130.383 24.16 130.423 24.552 130.503 24.824C130.599 25.08 130.775 25.248 131.031 25.328C131.287 25.408 131.655 25.448 132.135 25.448H133.503C134.319 25.448 134.999 25.296 135.543 24.992C136.103 24.688 136.551 24.192 136.887 23.504C137.223 22.8 137.471 21.84 137.631 20.624H138.183C138.135 21.12 138.111 21.76 138.111 22.544C138.111 22.88 138.119 23.368 138.135 24.008C138.167 24.648 138.215 25.312 138.279 26C137.463 25.968 136.543 25.952 135.519 25.952C134.495 25.936 133.583 25.928 132.783 25.928C132.415 25.928 131.927 25.928 131.319 25.928C130.727 25.928 130.079 25.936 129.375 25.952C128.687 25.952 127.983 25.96 127.263 25.976C126.559 25.976 125.887 25.984 125.247 26V25.52C125.775 25.488 126.167 25.424 126.423 25.328C126.695 25.232 126.871 25.04 126.951 24.752C127.047 24.464 127.095 24.032 127.095 23.456V11.552C127.095 10.96 127.047 10.528 126.951 10.256C126.871 9.968 126.695 9.776 126.423 9.68C126.167 9.568 125.775 9.504 125.247 9.488V9.008C125.887 9.024 126.559 9.04 127.263 9.056C127.983 9.056 128.687 9.064 129.375 9.08C130.079 9.08 130.727 9.08 131.319 9.08C131.927 9.08 132.415 9.08 132.783 9.08C133.519 9.08 134.351 9.08 135.279 9.08C136.223 9.064 137.063 9.04 137.799 9.008ZM133.935 17.216C133.935 17.216 133.935 17.296 133.935 17.456C133.935 17.616 133.935 17.696 133.935 17.696H129.663C129.663 17.696 129.663 17.616 129.663 17.456C129.663 17.296 129.663 17.216 129.663 17.216H133.935ZM134.631 14.048C134.567 14.96 134.535 15.656 134.535 16.136C134.551 16.616 134.559 17.056 134.559 17.456C134.559 17.856 134.567 18.296 134.583 18.776C134.599 19.256 134.639 19.952 134.703 20.864H134.151C134.071 20.32 133.943 19.808 133.767 19.328C133.607 18.832 133.343 18.44 132.975 18.152C132.623 17.848 132.111 17.696 131.439 17.696V17.216C131.935 17.216 132.335 17.112 132.639 16.904C132.959 16.696 133.215 16.432 133.407 16.112C133.599 15.776 133.743 15.432 133.839 15.08C133.951 14.712 134.031 14.368 134.079 14.048H134.631ZM140.247 9.008C140.647 9.024 141.159 9.04 141.783 9.056C142.407 9.072 143.031 9.08 143.655 9.08C144.439 9.08 145.183 9.072 145.887 9.056C146.591 9.04 147.087 9.032 147.375 9.032C148.815 9.032 149.999 9.208 150.927 9.56C151.871 9.896 152.575 10.376 153.039 11C153.503 11.624 153.735 12.36 153.735 13.208C153.735 13.736 153.631 14.28 153.423 14.84C153.215 15.384 152.855 15.888 152.343 16.352C151.831 16.816 151.127 17.2 150.231 17.504C149.351 17.792 148.223 17.936 146.847 17.936H144.543V17.456H146.607C147.615 17.456 148.383 17.28 148.911 16.928C149.455 16.56 149.815 16.08 149.991 15.488C150.183 14.88 150.279 14.208 150.279 13.472C150.279 12.208 150.031 11.232 149.535 10.544C149.039 9.84 148.183 9.488 146.967 9.488C146.311 9.488 145.879 9.624 145.671 9.896C145.479 10.168 145.383 10.72 145.383 11.552V23.456C145.383 24.032 145.431 24.464 145.527 24.752C145.623 25.04 145.799 25.232 146.055 25.328C146.327 25.424 146.719 25.488 147.231 25.52V26C146.831 25.968 146.319 25.952 145.695 25.952C145.071 25.936 144.439 25.928 143.799 25.928C143.079 25.928 142.407 25.936 141.783 25.952C141.159 25.952 140.647 25.968 140.247 26V25.52C140.775 25.488 141.167 25.424 141.423 25.328C141.695 25.232 141.871 25.04 141.951 24.752C142.047 24.464 142.095 24.032 142.095 23.456V11.552C142.095 10.96 142.047 10.528 141.951 10.256C141.871 9.968 141.695 9.776 141.423 9.68C141.167 9.568 140.775 9.504 140.247 9.488V9.008ZM144.543 17.528C145.295 17.56 145.919 17.6 146.415 17.648C146.927 17.68 147.359 17.712 147.711 17.744C148.079 17.776 148.407 17.816 148.695 17.864C150.023 17.992 150.999 18.304 151.623 18.8C152.263 19.28 152.687 20.016 152.895 21.008L153.447 23.48C153.591 24.136 153.743 24.608 153.903 24.896C154.079 25.168 154.327 25.296 154.647 25.28C154.871 25.28 155.063 25.224 155.223 25.112C155.383 24.984 155.543 24.816 155.703 24.608L156.039 24.896C155.639 25.392 155.215 25.76 154.767 26C154.319 26.224 153.751 26.336 153.063 26.336C152.295 26.336 151.647 26.16 151.119 25.808C150.591 25.44 150.231 24.752 150.039 23.744L149.583 21.344C149.455 20.672 149.303 20.08 149.127 19.568C148.967 19.056 148.743 18.656 148.455 18.368C148.167 18.08 147.743 17.936 147.183 17.936H144.591L144.543 17.528ZM163.473 9.008V9.488C162.961 9.504 162.569 9.568 162.297 9.68C162.041 9.776 161.865 9.968 161.769 10.256C161.673 10.528 161.625 10.96 161.625 11.552V23.456C161.625 24.032 161.673 24.464 161.769 24.752C161.865 25.04 162.041 25.232 162.297 25.328C162.569 25.424 162.961 25.488 163.473 25.52V26C163.073 25.968 162.561 25.952 161.937 25.952C161.313 25.936 160.681 25.928 160.041 25.928C159.321 25.928 158.649 25.936 158.025 25.952C157.401 25.952 156.889 25.968 156.489 26V25.52C157.017 25.488 157.409 25.424 157.665 25.328C157.937 25.232 158.113 25.04 158.193 24.752C158.289 24.464 158.337 24.032 158.337 23.456V11.552C158.337 10.96 158.289 10.528 158.193 10.256C158.113 9.968 157.937 9.776 157.665 9.68C157.409 9.568 157.017 9.504 156.489 9.488V9.008C156.889 9.024 157.401 9.04 158.025 9.056C158.649 9.072 159.321 9.08 160.041 9.08C160.681 9.08 161.313 9.072 161.937 9.056C162.561 9.04 163.073 9.024 163.473 9.008ZM179.391 9.008C179.327 9.744 179.279 10.464 179.247 11.168C179.231 11.856 179.223 12.384 179.223 12.752C179.223 13.12 179.231 13.464 179.247 13.784C179.263 14.104 179.279 14.384 179.295 14.624H178.743C178.519 13.344 178.247 12.344 177.927 11.624C177.607 10.888 177.183 10.36 176.655 10.04C176.143 9.72 175.463 9.56 174.615 9.56H173.847V23.24C173.847 23.896 173.903 24.384 174.015 24.704C174.143 25.024 174.391 25.24 174.759 25.352C175.127 25.448 175.663 25.504 176.367 25.52V26C175.887 25.968 175.263 25.952 174.495 25.952C173.727 25.936 172.943 25.928 172.143 25.928C171.311 25.928 170.527 25.936 169.791 25.952C169.071 25.952 168.487 25.968 168.039 26V25.52C168.727 25.504 169.255 25.448 169.623 25.352C169.991 25.24 170.239 25.024 170.367 24.704C170.495 24.384 170.559 23.896 170.559 23.24V9.56H169.767C168.935 9.56 168.255 9.72 167.727 10.04C167.199 10.36 166.775 10.888 166.455 11.624C166.135 12.344 165.871 13.344 165.663 14.624H165.111C165.143 14.384 165.159 14.104 165.159 13.784C165.175 13.464 165.183 13.12 165.183 12.752C165.183 12.384 165.167 11.856 165.135 11.168C165.119 10.464 165.079 9.744 165.015 9.008C165.719 9.024 166.495 9.04 167.343 9.056C168.191 9.072 169.039 9.08 169.887 9.08C170.735 9.08 171.511 9.08 172.215 9.08C172.903 9.08 173.671 9.08 174.519 9.08C175.367 9.08 176.215 9.072 177.063 9.056C177.911 9.04 178.687 9.024 179.391 9.008ZM187.206 8.936L193.038 23.984C193.278 24.56 193.534 24.96 193.806 25.184C194.094 25.392 194.358 25.504 194.598 25.52V26C194.182 25.968 193.678 25.952 193.086 25.952C192.51 25.936 191.918 25.928 191.31 25.928C190.606 25.928 189.95 25.936 189.342 25.952C188.734 25.952 188.238 25.968 187.854 26V25.52C188.67 25.488 189.19 25.352 189.414 25.112C189.638 24.856 189.59 24.32 189.27 23.504L185.046 12.104L185.478 11.576L181.638 21.536C181.334 22.336 181.15 22.992 181.086 23.504C181.022 24.016 181.062 24.416 181.206 24.704C181.35 24.992 181.59 25.2 181.926 25.328C182.262 25.44 182.678 25.504 183.174 25.52V26C182.662 25.968 182.166 25.952 181.686 25.952C181.206 25.936 180.726 25.928 180.246 25.928C179.894 25.928 179.558 25.936 179.238 25.952C178.934 25.952 178.662 25.968 178.422 26V25.52C178.774 25.44 179.118 25.232 179.454 24.896C179.806 24.56 180.142 23.976 180.462 23.144L185.958 8.936C186.15 8.952 186.358 8.96 186.582 8.96C186.806 8.96 187.014 8.952 187.206 8.936ZM189.294 19.088V19.568H182.142L182.382 19.088H189.294ZM201.037 8.72C201.933 8.72 202.621 8.816 203.101 9.008C203.581 9.2 203.997 9.408 204.349 9.632C204.541 9.744 204.693 9.832 204.805 9.896C204.933 9.944 205.053 9.968 205.165 9.968C205.325 9.968 205.437 9.88 205.501 9.704C205.581 9.528 205.645 9.264 205.693 8.912H206.245C206.229 9.216 206.205 9.568 206.173 9.968C206.157 10.368 206.141 10.904 206.125 11.576C206.125 12.232 206.125 13.104 206.125 14.192H205.573C205.525 13.376 205.341 12.592 205.021 11.84C204.717 11.088 204.277 10.472 203.701 9.992C203.141 9.496 202.421 9.248 201.541 9.248C200.757 9.248 200.101 9.48 199.573 9.944C199.061 10.408 198.805 11.032 198.805 11.816C198.805 12.488 198.973 13.056 199.309 13.52C199.645 13.968 200.117 14.408 200.725 14.84C201.349 15.256 202.085 15.736 202.933 16.28C203.717 16.792 204.421 17.304 205.045 17.816C205.669 18.312 206.157 18.864 206.509 19.472C206.877 20.08 207.061 20.824 207.061 21.704C207.061 22.744 206.805 23.608 206.293 24.296C205.781 24.984 205.093 25.496 204.229 25.832C203.365 26.168 202.421 26.336 201.397 26.336C200.453 26.336 199.701 26.24 199.141 26.048C198.597 25.856 198.125 25.656 197.725 25.448C197.373 25.224 197.101 25.112 196.909 25.112C196.749 25.112 196.629 25.2 196.549 25.376C196.485 25.552 196.429 25.816 196.381 26.168H195.829C195.861 25.8 195.877 25.368 195.877 24.872C195.893 24.376 195.901 23.736 195.901 22.952C195.917 22.152 195.925 21.144 195.925 19.928H196.477C196.541 20.952 196.717 21.912 197.005 22.808C197.309 23.688 197.765 24.4 198.373 24.944C198.997 25.488 199.821 25.76 200.845 25.76C201.405 25.76 201.909 25.664 202.357 25.472C202.821 25.264 203.189 24.952 203.461 24.536C203.733 24.104 203.869 23.56 203.869 22.904C203.869 22.248 203.717 21.672 203.413 21.176C203.109 20.68 202.685 20.216 202.141 19.784C201.597 19.352 200.957 18.912 200.221 18.464C199.469 17.984 198.765 17.496 198.109 17C197.453 16.504 196.925 15.944 196.525 15.32C196.141 14.68 195.949 13.912 195.949 13.016C195.949 12.024 196.189 11.216 196.669 10.592C197.149 9.952 197.773 9.48 198.541 9.176C199.325 8.872 200.157 8.72 201.037 8.72Z" fill="white"/>
</svg>
