<svg width="20" height="20" viewBox="0 0 20 20" fill="none" xmlns="http://www.w3.org/2000/svg">
<path d="M16.0245 12.7168L13.9075 12.4748C13.6587 12.4457 13.4066 12.4733 13.17 12.5555C12.9334 12.6378 12.7185 12.7726 12.5415 12.9498L11.0075 14.4828C8.64221 13.2797 6.71963 11.3571 5.51651 8.99181L7.05751 7.44981C7.41651 7.09181 7.59151 6.59181 7.53251 6.08281L7.29151 3.98281C7.24415 3.57622 7.04893 3.20124 6.74301 2.92926C6.4371 2.65727 6.04185 2.50727 5.63251 2.50781H4.19151C3.24951 2.50781 2.46651 3.29181 2.52451 4.23281C2.96651 11.3498 8.65751 17.0328 15.7665 17.4748C16.7075 17.5328 17.4915 16.7498 17.4915 15.8078V14.3668C17.4936 13.9593 17.3449 13.5653 17.0741 13.2608C16.8033 12.9562 16.4295 12.7624 16.0245 12.7168Z" fill="url(#paint0_linear_422_1863)"/>
<defs>
<linearGradient id="paint0_linear_422_1863" x1="10.0065" y1="2.50781" x2="10.0065" y2="17.4778" gradientUnits="userSpaceOnUse">
<stop stop-color="#FF8352"/>
<stop offset="1" stop-color="#994F31"/>
</linearGradient>
</defs>
</svg>
